<?xml version="1.0" encoding="UTF-8"?>
<svg version="1.1" xmlns="http://www.w3.org/2000/svg" width="500" height="500">
<path d="M0 0 C0.98881416 -0.00744736 0.98881416 -0.00744736 1.99760437 -0.01504517 C4.18542534 -0.0296756 6.3731732 -0.03647911 8.56103516 -0.04199219 C9.69255949 -0.04623325 9.69255949 -0.04623325 10.8469429 -0.05056 C14.85874023 -0.06557547 18.87050156 -0.0747831 22.88232422 -0.07910156 C26.16206226 -0.08344697 29.4415314 -0.09717962 32.72119141 -0.12011719 C98.13554682 -0.56887766 98.13554682 -0.56887766 121.03759766 21.50097656 C135.47305089 37.25505293 139.31884919 58.62924007 138.76025391 79.32519531 C137.75091192 100.75365237 128.65442381 121.09061904 113.47509766 136.16113281 C112.92080078 136.77214844 112.36650391 137.38316406 111.79541016 138.01269531 C99.0213329 150.904506 76.2379326 156.94427132 58.63256836 157.22167969 C54.9129768 157.23331138 51.19442052 157.20471863 47.47509766 157.16113281 C47.49175224 158.22229057 47.49175224 158.22229057 47.50874329 159.30488586 C47.60890808 165.97024228 47.68504281 172.63538887 47.73415852 179.30132771 C47.76025881 182.72847394 47.79566138 186.15499864 47.85229492 189.58178711 C47.91698877 193.52092052 47.9412748 197.45980185 47.96337891 201.39941406 C47.98918533 202.63073563 48.01499176 203.86205719 48.0415802 205.13069153 C48.04195786 206.2716478 48.04233551 207.41260406 48.04272461 208.58813477 C48.0593792 210.09704033 48.0593792 210.09704033 48.07637024 211.63642883 C47.47509766 214.16113281 47.47509766 214.16113281 45.08399963 215.96434021 C36.38229543 219.95610966 26.42960796 219.47663411 17.04052734 219.421875 C14.84656365 219.41111548 12.65341227 219.42184899 10.45947266 219.43457031 C-7.08644862 219.45343529 -7.08644862 219.45343529 -13.52490234 215.16113281 C-13.82798855 212.37493478 -13.93343567 209.80939102 -13.9125824 207.01982117 C-13.91796794 206.1681777 -13.92335347 205.31653424 -13.92890221 204.4390834 C-13.94327689 201.56853805 -13.93605473 198.69844771 -13.92895508 195.82788086 C-13.93465377 193.77660753 -13.94161608 191.72533737 -13.94975281 189.67407227 C-13.96775711 184.08927695 -13.96650192 178.50463812 -13.96081042 172.91982245 C-13.95772828 168.26267665 -13.96380031 163.60556134 -13.96984917 158.94841987 C-13.98391739 147.96241383 -13.98231474 136.9764855 -13.97094727 125.99047852 C-13.95947031 114.64787958 -13.97352949 103.3055172 -14.00034374 91.96294945 C-14.02248276 82.23465674 -14.02914197 72.50643837 -14.02326733 62.77812225 C-14.01989146 56.96355742 -14.02235432 51.14914416 -14.03951836 45.33460045 C-14.05495615 39.8656074 -14.05106699 34.39696517 -14.03221321 28.92798615 C-14.02851821 26.91922639 -14.03166221 24.91044083 -14.042099 22.90170479 C-14.05524861 20.16186081 -14.043815 17.42318846 -14.02610779 14.68339539 C-14.03571279 13.88611564 -14.0453178 13.08883589 -14.05521387 12.26739615 C-14.00585585 8.56212605 -13.6530271 6.36752365 -11.681077 3.1909914 C-8.04778357 -0.2294513 -4.7910937 0.0274603 0 0 Z M47.47509766 55.16113281 C47.47509766 71.33113281 47.47509766 87.50113281 47.47509766 104.16113281 C57.08681855 103.19996072 63.69284289 102.44460474 70.35009766 95.53613281 C75.62008727 88.95781631 77.1413012 81.42205671 76.47509766 73.16113281 C75.58209943 67.83291009 74.46176333 62.35481281 69.90087891 59.00488281 C62.53929436 54.5336384 56.42645754 55.16113281 47.47509766 55.16113281 Z " fill="#8550EC" transform="translate(101.52490234375,139.8388671875)"/>
<path d="M0 0 C3.01851097 3.03448193 3.91178529 5.61671829 4.18359375 9.87890625 C3.62042949 24.9753417 -4.03230142 42.50915788 -15 53 C-17.375 54.1875 -17.375 54.1875 -20 54 C-21.79750797 53.05037315 -23.59373955 52.09823677 -25.3828125 51.1328125 C-36.43306327 46.34986814 -48.44449983 45.9575035 -59.74609375 49.9765625 C-69.01292483 54.12336362 -75.17258189 60.59655386 -78.96875 69.984375 C-85.15125758 88.06352597 -85.41715581 109.02773251 -78.1875 126.875 C-73.36843743 136.63994258 -66.69446142 143.20977553 -56.3125 146.875 C-45.29345561 149.73620473 -31.03773869 149.06831062 -20.77734375 143.875 C-20.19082031 143.50375 -19.60429687 143.1325 -19 142.75 C-16 141 -16 141 -13.05859375 141.1015625 C-6.87127469 142.91903809 -3.96357076 149.41140515 -1.00878906 154.81152344 C4.25549088 164.95308188 9.60902031 176.30012373 8 188 C5.83488186 194.76599418 0.49137509 199.0965696 -5.59375 202.4140625 C-30.44509662 213.54255013 -63.15293056 215.18833152 -88.72314453 206.10083008 C-110.9491439 197.61843006 -128.90525676 180.49866541 -139 159 C-154.08005716 123.73509386 -154.102574 80.40199316 -140.41845703 44.67993164 C-130.99721459 21.32492216 -112.73311529 2.99984456 -90 -7.375 C-83.14194972 -10.14740331 -76.29185232 -11.82389479 -69 -13 C-68.15824219 -13.14308594 -67.31648438 -13.28617188 -66.44921875 -13.43359375 C-45.8776072 -16.09117036 -16.23415333 -14.11069867 0 0 Z " fill="#8550EC" transform="translate(410,151)"/>
<path d="M0 0 C0.66 0 1.32 0 2 0 C2.95745952 4.7990459 3.12588161 9.44051788 3.08229065 14.31430054 C3.07906152 15.13613756 3.07583239 15.95797458 3.07250541 16.80471575 C3.06047118 19.5500345 3.04108999 22.29525124 3.02172852 25.04052734 C3.01158139 27.01182842 3.00188819 28.98313188 2.99261475 30.95443726 C2.96617717 36.30105171 2.9333888 41.64761061 2.89946485 46.99418211 C2.86507883 52.58355497 2.83652704 58.17295754 2.80735779 63.76235962 C2.75124598 74.34447674 2.68988318 84.92655664 2.62663645 95.50863326 C2.55488216 107.55688896 2.4889777 119.60517444 2.42356598 131.65346599 C2.28888902 156.43568263 2.14686135 181.21785278 2 206 C2.99 206.33 3.98 206.66 5 207 C5 207.66 5 208.32 5 209 C5.66 209.33 6.32 209.66 7 210 C5.00045254 210.04254356 2.99958364 210.04080783 1 210 C-0.79086972 208.20913028 -0.12257793 205.78521135 -0.12908131 203.4007377 C-0.12616847 202.59044235 -0.12325563 201.780147 -0.12025452 200.94529724 C-0.12110894 200.09098037 -0.12196337 199.2366635 -0.12284368 198.35645825 C-0.12450111 195.4712606 -0.11897284 192.58612009 -0.11352539 189.70092773 C-0.11324355 187.64169313 -0.11340119 185.58245842 -0.1139679 183.52322388 C-0.11425599 177.91394913 -0.10835735 172.30469556 -0.10139394 166.69542575 C-0.09516237 160.8404137 -0.09455676 154.98540121 -0.09336853 149.13038635 C-0.09025463 138.03459239 -0.08204045 126.93880823 -0.07201904 115.84301859 C-0.06085972 103.21445826 -0.05534791 90.58589747 -0.05032361 77.95733345 C-0.03985789 51.97155019 -0.02225731 25.98577564 0 0 Z " fill="#8B65E3" transform="translate(88,146)"/>
<path d="M0 0 C1.258125 -0.04125 2.51625 -0.0825 3.8125 -0.125 C4.52019531 -0.14820313 5.22789062 -0.17140625 5.95703125 -0.1953125 C8 0 8 0 11 2 C-9.15028245 6.07861139 -29.94060375 7.09060207 -50 2 C-50 1.67 -50 1.34 -50 1 C-44.9813826 0.91493869 -40.09331642 1.04752171 -35.09375 1.5 C-27.78293337 2.08240548 -20.51759374 2.11257421 -13.1875 2.0625 C-11.27227539 2.05573242 -11.27227539 2.05573242 -9.31835938 2.04882812 C-6.21218789 2.03719452 -3.10612092 2.02085075 0 2 C0 1.34 0 0.68 0 0 Z " fill="#A07DE3" transform="translate(377,357)"/>
<path d="M0 0 C8.73536754 15.19194354 6.32663529 38.86281973 2 55 C1.09394006 58.0528506 0.10155684 61.01005999 -1 64 C-1.33 64 -1.66 64 -2 64 C-2 61.36 -2 58.72 -2 56 C-1.34 56 -0.68 56 0 56 C-0.020625 54.700625 -0.04125 53.40125 -0.0625 52.0625 C-0.08399454 50.70834367 -0.07148199 49.35243917 0 48 C0.495 47.505 0.495 47.505 1 47 C1.91167659 41.23251406 2.19224748 35.58287527 2.1875 29.75 C2.18814453 28.91879639 2.18878906 28.08759277 2.18945312 27.23120117 C2.14075569 21.52751461 1.56411885 16.13706692 0.4453125 10.53515625 C-0.18095937 6.96980149 -0.13884306 3.6099195 0 0 Z " fill="#A380E2" transform="translate(235,184)"/>
<path d="M0 0 C5.94 0.33 11.88 0.66 18 1 C18 1.33 18 1.66 18 2 C20.475 2.495 20.475 2.495 23 3 C23 3.66 23 4.32 23 5 C23.99 5 24.98 5 26 5 C26 5.99 26 6.98 26 8 C23.23231157 7.3575009 20.65436083 6.50543971 18 5.5 C11.94472763 3.4955639 11.94472763 3.4955639 1 3 C1 19.17 1 35.34 1 52 C0.67 52 0.34 52 0 52 C0 34.84 0 17.68 0 0 Z M26 4 C28 5 28 5 28 5 Z " fill="#B597ED" transform="translate(148,192)"/>
<path d="M0 0 C0.33 0 0.66 0 1 0 C0.18719634 7.17976565 0.18719634 7.17976565 -0.51171875 10.2421875 C-3.76442134 24.68326426 -2.80553162 39.80319811 1 54 C1.34593322 55.66409708 1.68380462 57.3299972 2 59 C0.0625 57.9375 0.0625 57.9375 -2 56 C-2.6875 52.375 -2.6875 52.375 -3 49 C-3.33 48.67 -3.66 48.34 -4 48 C-4.13853667 45.22085879 -4.21321948 42.46845097 -4.23828125 39.6875 C-4.246353 38.84461426 -4.25442474 38.00172852 -4.26274109 37.13330078 C-4.27660641 35.34100411 -4.28731755 33.54868077 -4.29516602 31.75634766 C-4.31225562 29.03886023 -4.35610255 26.32262889 -4.40039062 23.60546875 C-4.41052831 21.8619881 -4.41904103 20.1184971 -4.42578125 18.375 C-4.44328934 17.57151123 -4.46079742 16.76802246 -4.47883606 15.94018555 C-4.45596477 9.86657873 -2.8097297 5.35515148 0 0 Z " fill="#9E7CE2" transform="translate(329,219)"/>
<path d="M0 0 C0.66 0.33 1.32 0.66 2 1 C1.23883449 2.15227823 0.46567307 3.2966386 -0.3125 4.4375 C-0.74175781 5.07558594 -1.17101562 5.71367187 -1.61328125 6.37109375 C-3 8 -3 8 -6 9 C-7.01866229 10.65532623 -8.01810813 12.32260138 -9 14 C-9.99 14.66 -10.98 15.32 -12 16 C-12.25030977 18.58380177 -12.25030977 18.58380177 -12 21 C-12.99 21.33 -13.98 21.66 -15 22 C-15.33 22.99 -15.66 23.98 -16 25 C-16 24.34 -16 23.68 -16 23 C-16.66 23 -17.32 23 -18 23 C-18 23.99 -18 24.98 -18 26 C-19.32 26.33 -20.64 26.66 -22 27 C-18.10219053 16.05911897 -8.16356456 7.91865762 0 0 Z " fill="#9973E2" transform="translate(299,156)"/>
<path d="M0 0 C0.14547716 3.89190083 0.28771642 7.7839067 0.42724609 11.67602539 C0.49805356 13.6336856 0.57125854 15.59125863 0.64453125 17.54882812 C0.9350283 25.70349539 1.06221501 33.8403292 1 42 C0.67 42 0.34 42 0 42 C-2.34208741 28.31129496 -3.18985519 14.88052403 -3 1 C-1 0 -1 0 0 0 Z " fill="#A584E3" transform="translate(263,243)"/>
<path d="M0 0 C0.33 0 0.66 0 1 0 C1 18.81 1 37.62 1 57 C-3 59 -3 59 -5.25 58.625 C-5.8275 58.41875 -6.405 58.2125 -7 58 C-7 57.67 -7 57.34 -7 57 C-5.02 56.34 -3.04 55.68 -1 55 C-0.67 36.85 -0.34 18.7 0 0 Z " fill="#825FD3" transform="translate(147,298)"/>
<path d="M0 0 C2.875 1 2.875 1 4.75 3.5625 C5.306875 4.7690625 5.306875 4.7690625 5.875 6 C4.555 5.67 3.235 5.34 1.875 5 C1.875 4.34 1.875 3.68 1.875 3 C-1.91803725 4.00193437 -4.84036341 4.81024227 -8.125 7 C-11.625 7.75 -11.625 7.75 -15.125 8 C-16.115 7.34 -17.105 6.68 -18.125 6 C-17.46113281 5.81824219 -16.79726563 5.63648438 -16.11328125 5.44921875 C-10.51511983 3.88713677 -10.51511983 3.88713677 -5.375 1.25 C-3.125 0 -3.125 0 0 0 Z " fill="#A380E3" transform="translate(397.125,292)"/>
<path d="M0 0 C0.66 0 1.32 0 2 0 C2.33773438 0.77085937 2.67546875 1.54171875 3.0234375 2.3359375 C3.46945312 3.33882813 3.91546875 4.34171875 4.375 5.375 C4.81585938 6.37273437 5.25671875 7.37046875 5.7109375 8.3984375 C6.86712444 11.08022479 6.86712444 11.08022479 9 13 C9 14.32 9 15.64 9 17 C9.639375 17.268125 10.27875 17.53625 10.9375 17.8125 C13 19 13 19 14 22 C13.01 22 12.02 22 11 22 C9.33220867 19.77627822 7.87574752 17.61501386 6.4375 15.25 C5.83905273 14.29867188 5.83905273 14.29867188 5.22851562 13.328125 C0 4.94853402 0 4.94853402 0 0 Z " fill="#A685E3" transform="translate(271,306)"/>
<path d="M0 0 C1.03930664 0.01353516 1.03930664 0.01353516 2.09960938 0.02734375 C3.79572395 0.05073843 5.49165871 0.08660359 7.1875 0.125 C-2.4007165 5.55832268 -15.11761123 4.37212195 -25.8125 4.125 C-25.8125 3.795 -25.8125 3.465 -25.8125 3.125 C-24.93207031 3.07601563 -24.05164063 3.02703125 -23.14453125 2.9765625 C-21.98308594 2.90179688 -20.82164062 2.82703125 -19.625 2.75 C-17.90216797 2.64558594 -17.90216797 2.64558594 -16.14453125 2.5390625 C-12.89013711 2.288649 -12.89013711 2.288649 -10.375 1.09375 C-6.91681118 -0.21361406 -3.63795491 -0.09051371 0 0 Z " fill="#A684E4" transform="translate(173.8125,292.875)"/>
<path d="M0 0 C-1.00417969 0.06058594 -2.00835937 0.12117187 -3.04296875 0.18359375 C-11.70203244 0.7120263 -20.35244347 1.30404939 -29 2 C-28.67 1.34 -28.34 0.68 -28 0 C-25.47762279 -0.48645846 -23.04695033 -0.84755567 -20.5 -1.125 C-19.77401611 -1.2084668 -19.04803223 -1.29193359 -18.30004883 -1.37792969 C-4.35544702 -2.90363135 -4.35544702 -2.90363135 0 0 Z " fill="#A282DF" transform="translate(364,139)"/>
<path d="M0 0 C3.10332212 3.10332212 4.41785005 5.55109427 6.25 9.5 C7.06210937 11.21703125 7.06210937 11.21703125 7.890625 12.96875 C9 16 9 16 8 19 C5.16625119 15.79663178 4.4794463 13.21912747 4 9 C3.01 9 2.02 9 1 9 C0.67 6.03 0.34 3.06 0 0 Z " fill="#9874E0" transform="translate(405,301)"/>
<path d="M0 0 C0.66 0.33 1.32 0.66 2 1 C2.34707004 6.78450072 2.27233705 10.96563531 -1 16 C-1.66 16.33 -2.32 16.66 -3 17 C-3 16.34 -3 15.68 -3 15 C-3.99 14.67 -4.98 14.34 -6 14 C-5.38125 13.54625 -4.7625 13.0925 -4.125 12.625 C-1.04042995 8.81464877 -0.69126624 4.76609884 0 0 Z " fill="#9772E3" transform="translate(416,329)"/>
<path d="M0 0 C2.36978842 2.15435311 3.84754116 4.00156728 5 7 C5.046875 10.09375 5.046875 10.09375 4.75 13.5 C4.66234375 14.6240625 4.5746875 15.748125 4.484375 16.90625 C4.04274692 19.72697129 3.45084617 21.57399494 2 24 C2.03480469 22.58847656 2.03480469 22.58847656 2.0703125 21.1484375 C2.08835937 19.90320313 2.10640625 18.65796875 2.125 17.375 C2.15980469 15.53035156 2.15980469 15.53035156 2.1953125 13.6484375 C2.00189813 10.03545715 1.20363154 7.38343669 0 4 C0 2.68 0 1.36 0 0 Z " fill="#B299E3" transform="translate(409,151)"/>
<path d="M0 0 C7.32487151 2.62248486 13.55032053 7.61567728 18 14 C15.525 13.505 15.525 13.505 13 13 C13 12.01 13 11.02 13 10 C12.21625 9.731875 11.4325 9.46375 10.625 9.1875 C8 8 8 8 6 5 C3.43717258 4.27034634 3.43717258 4.27034634 1 4 C0.67 2.68 0.34 1.36 0 0 Z " fill="#A98AE2" transform="translate(207,151)"/>
<path d="M0 0 C-2.56379829 3.23569026 -4.87334958 3.5761452 -8.875 4.125 C-9.90367187 4.27195313 -10.93234375 4.41890625 -11.9921875 4.5703125 C-12.98476563 4.71210938 -13.97734375 4.85390625 -15 5 C-16.66905774 5.32114661 -18.33672009 5.65015884 -20 6 C-20 5.34 -20 4.68 -20 4 C-13.20780865 -0.17981006 -7.88602342 -0.4731614 0 0 Z " fill="#9F7CE5" transform="translate(368,195)"/>
<path d="M0 0 C3.68931338 6.32453722 4.25454902 12.87262743 4 20 C3.34 20 2.68 20 2 20 C0.74158054 13.25846717 -0.26404456 6.86515862 0 0 Z " fill="#9F7EE2" transform="translate(235,184)"/>
<path d="M0 0 C1.65 0.33 3.3 0.66 5 1 C4.67 1.99 4.34 2.98 4 4 C3.34 4 2.68 4 2 4 C1.67 4.99 1.34 5.98 1 7 C1 6.34 1 5.68 1 5 C0.34 5 -0.32 5 -1 5 C-1 5.99 -1 6.98 -1 8 C-2.32 8.33 -3.64 8.66 -5 9 C-3.7508258 5.54074837 -2.32472205 2.85306797 0 0 Z " fill="#8351E5" transform="translate(282,174)"/>
<path d="M0 0 C0.66 0.33 1.32 0.66 2 1 C1.67 1.99 1.34 2.98 1 4 C-1.31 4 -3.62 4 -6 4 C-6 4.66 -6 5.32 -6 6 C-9.96 6 -13.92 6 -18 6 C-18 5.67 -18 5.34 -18 5 C-17.03578125 4.80664062 -16.0715625 4.61328125 -15.078125 4.4140625 C-13.81484375 4.15367187 -12.5515625 3.89328125 -11.25 3.625 C-9.99703125 3.36976563 -8.7440625 3.11453125 -7.453125 2.8515625 C-4.10898114 2.16122045 -4.10898114 2.16122045 -1.671875 0.8359375 C-1.12015625 0.56007812 -0.5684375 0.28421875 0 0 Z " fill="#9777DA" transform="translate(166,239)"/>
<path d="M0 0 C3.3 0 6.6 0 10 0 C10 0.66 10 1.32 10 2 C10.99 2 11.98 2 13 2 C13 2.99 13 3.98 13 5 C10.02277453 4.29666462 7.14743457 3.41751463 4.25 2.4375 C3.45078125 2.16808594 2.6515625 1.89867187 1.828125 1.62109375 C1.22484375 1.41613281 0.6215625 1.21117187 0 1 C0 0.67 0 0.34 0 0 Z M13 1 C15 2 15 2 15 2 Z " fill="#9F7AE3" transform="translate(161,195)"/>
<path d="M0 0 C-4.36200187 2.44697666 -8.02693484 3.50269348 -13 4 C-13 3.34 -13 2.68 -13 2 C-11.5882217 1.46605821 -10.17029756 0.94834896 -8.75 0.4375 C-7.96109375 0.14746094 -7.1721875 -0.14257812 -6.359375 -0.44140625 C-3.80896548 -1.04522837 -2.44677771 -0.8473932 0 0 Z " fill="#A381E6" transform="translate(401,354)"/>
<path d="M0 0 C0.66 0 1.32 0 2 0 C2 0.66 2 1.32 2 2 C3.32 2 4.64 2 6 2 C6 2.66 6 3.32 6 4 C6.66 4.33 7.32 4.66 8 5 C7.67 6.32 7.34 7.64 7 9 C5.83037314 7.69013727 4.66437056 6.3770374 3.5 5.0625 C2.8503125 4.33160156 2.200625 3.60070312 1.53125 2.84765625 C0 1 0 1 0 0 Z " fill="#A986E2" transform="translate(284,329)"/>
<path d="M0 0 C0.66 0 1.32 0 2 0 C0.68938409 4.23429756 -0.94356259 8.07407404 -3 12 C-3.33 12 -3.66 12 -4 12 C-4 9.69 -4 7.38 -4 5 C-3.01 5 -2.02 5 -1 5 C-0.67 3.35 -0.34 1.7 0 0 Z " fill="#9875E1" transform="translate(406,182)"/>
<path d="M0 0 C0.66 0.33 1.32 0.66 2 1 C1.814375 1.598125 1.62875 2.19625 1.4375 2.8125 C0.77906313 5.16408762 0.77906313 5.16408762 2 8 C-0.4375 7.1875 -0.4375 7.1875 -3 6 C-3.33 5.01 -3.66 4.02 -4 3 C-2.68 2.01 -1.36 1.02 0 0 Z " fill="#966DE6" transform="translate(302,339)"/>
<path d="M0 0 C1.89213369 2.38573379 3.02391783 4.07175348 4 7 C1 8 1 8 -2 8 C-1.67 6.68 -1.34 5.36 -1 4 C-1.66 4 -2.32 4 -3 4 C-2 2 -2 2 0 0 Z " fill="#986FE8" transform="translate(331,278)"/>
<path d="M0 0 C2.64 0.33 5.28 0.66 8 1 C8 1.99 8 2.98 8 4 C5.36 3.67 2.72 3.34 0 3 C0 2.01 0 1.02 0 0 Z " fill="#9772E1" transform="translate(190,145)"/>
<path d="M0 0 C0.99 0.495 0.99 0.495 2 1 C2 2.32 2 3.64 2 5 C2.639375 5.268125 3.27875 5.53625 3.9375 5.8125 C6 7 6 7 7 10 C6.01 10 5.02 10 4 10 C1.09677182 6.35022743 0 4.74147821 0 0 Z " fill="#9F7BDF" transform="translate(278,318)"/>
<path d="M0 0 C0.66 0.33 1.32 0.66 2 1 C-2.11378556 7.70459519 -2.11378556 7.70459519 -5.8125 8.9375 C-6.8953125 8.9684375 -6.8953125 8.9684375 -8 9 C-7.04270084 7.87411986 -6.08412105 6.7493285 -5.125 5.625 C-4.59132813 4.99851563 -4.05765625 4.37203125 -3.5078125 3.7265625 C-2.38567993 2.44163349 -1.20628025 1.20628025 0 0 Z " fill="#A07FE1" transform="translate(299,156)"/>
<path d="M0 0 C4.09176955 0.30309404 7.46165096 0.87699058 11 3 C6.05632546 4.20577428 2.79137588 3.6290678 -2 2 C-1.34 1.34 -0.68 0.68 0 0 Z " fill="#9F7BE5" transform="translate(382,140)"/>
<path d="M0 0 C1.258125 -0.04125 2.51625 -0.0825 3.8125 -0.125 C4.52019531 -0.14820313 5.22789062 -0.17140625 5.95703125 -0.1953125 C8 0 8 0 11 2 C9.54263913 2.19491452 8.08405407 2.38069358 6.625 2.5625 C5.81289063 2.66691406 5.00078125 2.77132813 4.1640625 2.87890625 C2 3 2 3 0 2 C0 1.34 0 0.68 0 0 Z " fill="#9E77E4" transform="translate(377,357)"/>
<path d="M0 0 C5.75 0.75 5.75 0.75 8 3 C7.34 3 6.68 3 6 3 C6 3.66 6 4.32 6 5 C4.02 4.34 2.04 3.68 0 3 C0 2.01 0 1.02 0 0 Z " fill="#9D79E3" transform="translate(393,143)"/>
<path d="M0 0 C0.99 0.33 1.98 0.66 3 1 C2.6875 2.875 2.6875 2.875 2 5 C1.01 5.66 0.02 6.32 -1 7 C-1.33 5.35 -1.66 3.7 -2 2 C-1.34 2 -0.68 2 0 2 C0 1.34 0 0.68 0 0 Z " fill="#946EE4" transform="translate(396,196)"/>
<path d="M0 0 C1.258125 0.12375 2.51625 0.2475 3.8125 0.375 C4.87404297 0.47941406 4.87404297 0.47941406 5.95703125 0.5859375 C8 1 8 1 11 3 C6.74938644 4.41687119 4.28148375 3.19320039 0 2 C0 1.34 0 0.68 0 0 Z " fill="#9D79E0" transform="translate(374,197)"/>
<path d="M0 0 C3.0916909 2.52956528 3.90931332 5.22454612 5 9 C4.01 9.495 4.01 9.495 3 10 C3 9.01 3 8.02 3 7 C2.01 6.67 1.02 6.34 0 6 C0 4.02 0 2.04 0 0 Z " fill="#A484E6" transform="translate(228,170)"/>
<path d="M0 0 C2.09970981 3.9171057 2.99334562 7.68576696 4 12 C2 11.0625 2 11.0625 0 9 C-0.36475845 5.97465051 -0.22893297 3.03336186 0 0 Z " fill="#AF92E7" transform="translate(327,266)"/>
<path d="M0 0 C0.66 0.33 1.32 0.66 2 1 C-0.25 3.5625 -0.25 3.5625 -3 6 C-4.32 5.67 -5.64 5.34 -7 5 C-4.69 3.35 -2.38 1.7 0 0 Z " fill="#A785E4" transform="translate(309,149)"/>
<path d="M0 0 C1 2 1 2 0.44140625 4.1640625 C0.15136719 4.97617188 -0.13867188 5.78828125 -0.4375 6.625 C-0.72496094 7.44226563 -1.01242188 8.25953125 -1.30859375 9.1015625 C-1.53675781 9.72804687 -1.76492187 10.35453125 -2 11 C-2.33 11 -2.66 11 -3 11 C-3 8.36 -3 5.72 -3 3 C-2.34 3 -1.68 3 -1 3 C-0.67 2.01 -0.34 1.02 0 0 Z " fill="#A789E5" transform="translate(236,237)"/>
<path d="M0 0 C2.46254526 2.1413437 3.69050349 3.69870394 4 7 C3.01 8.485 3.01 8.485 2 10 C0.68373308 6.38026598 0 3.90432869 0 0 Z " fill="#9A78E0" transform="translate(409,151)"/>
<path d="M0 0 C0 0.66 0 1.32 0 2 C-2.97 2.66 -5.94 3.32 -9 4 C-8.34 3.67 -7.68 3.34 -7 3 C-7 2.34 -7 1.68 -7 1 C-4 0 -4 0 0 0 Z " fill="#AE91E4" transform="translate(191,289)"/>
<path d="M0 0 C1 2 1 2 0.3125 5.0625 C-1 8 -1 8 -3.125 8.875 C-3.74375 8.91625 -4.3625 8.9575 -5 9 C-3.7508258 5.54074837 -2.32472205 2.85306797 0 0 Z " fill="#A685E2" transform="translate(282,174)"/>
<path d="M0 0 C0.66 0.33 1.32 0.66 2 1 C1.67 1.99 1.34 2.98 1 4 C-1.64 4 -4.28 4 -7 4 C-4.66603411 2.44402274 -2.57343171 1.07918104 0 0 Z " fill="#AD8FE6" transform="translate(166,239)"/>
<path d="M0 0 C0.66 0 1.32 0 2 0 C2.25 2.3125 2.25 2.3125 2 5 C0 6.8125 0 6.8125 -2 8 C-1.34 5.36 -0.68 2.72 0 0 Z " fill="#A07FE1" transform="translate(267,203)"/>
</svg>
